<?xml version="1.0" encoding="UTF-8" standalone="no"?>
<!DOCTYPE svg PUBLIC "-//W3C//DTD SVG 1.1//EN"
 "http://www.w3.org/Graphics/SVG/1.1/DTD/svg11.dtd">
<!-- Generated by graphviz version 2.38.0 (20140413.2041)
 -->
<!-- Title: YD.Test Pages: 1 -->
<svg width="281pt" height="432pt"
 viewBox="0.00 0.00 280.94 432.00" xmlns="http://www.w3.org/2000/svg" xmlns:xlink="http://www.w3.org/1999/xlink">
<g id="graph0" class="graph" transform="scale(0.350081 0.350081) rotate(0) translate(4 1230)">
<title>YD.Test</title>
<polygon fill="white" stroke="none" points="-4,4 -4,-1230 798.5,-1230 798.5,4 -4,4"/>
<text text-anchor="start" x="126.75" y="-252" font-family="Courier Bold" font-size="20.00"> Generated by OpenModelica. </text>
<text text-anchor="start" x="126.75" y="-230" font-family="Courier Bold" font-size="20.00"> Overconstrained connection graph for model: </text>
<text text-anchor="start" x="126.75" y="-208" font-family="Courier Bold" font-size="20.00"> &#160;&#160;&#160;YD.Test</text>
<text text-anchor="start" x="126.75" y="-186" font-family="Courier Bold" font-size="20.00"> </text>
<text text-anchor="start" x="126.75" y="-164" font-family="Courier Bold" font-size="20.00"> Summary: </text>
<text text-anchor="start" x="126.75" y="-142" font-family="Courier Bold" font-size="20.00"> &#160;&#160;Roots: &#160;&#160;&#160;&#160;&#160;&#160;&#160;&#160;&#160;&#160;&#160;&#160;&#160;0</text>
<text text-anchor="start" x="126.75" y="-120" font-family="Courier Bold" font-size="20.00"> &#160;&#160;Potential Roots: &#160;&#160;&#160;0</text>
<text text-anchor="start" x="126.75" y="-98" font-family="Courier Bold" font-size="20.00"> &#160;&#160;Unique Roots: &#160;&#160;&#160;&#160;&#160;&#160;0</text>
<text text-anchor="start" x="126.75" y="-76" font-family="Courier Bold" font-size="20.00"> &#160;&#160;Branches: &#160;&#160;&#160;&#160;&#160;&#160;&#160;&#160;&#160;&#160;12</text>
<text text-anchor="start" x="126.75" y="-54" font-family="Courier Bold" font-size="20.00"> &#160;&#160;Connections: &#160;&#160;&#160;&#160;&#160;&#160;&#160;8</text>
<text text-anchor="start" x="126.75" y="-32" font-family="Courier Bold" font-size="20.00"> &#160;&#160;Final Roots: &#160;&#160;&#160;&#160;&#160;&#160;&#160;0</text>
<text text-anchor="start" x="126.75" y="-10" font-family="Courier Bold" font-size="20.00"> &#160;&#160;Broken Connections: 2</text>
<!-- logicalDelayStateGraph.T4.inPort.node -->
<g id="node1" class="node"><title>logicalDelayStateGraph.T4.inPort.node</title>
<polygon fill="#cae1ff" stroke="black" stroke-width="2" points="369,-965 133,-965 133,-929 369,-929 369,-965"/>
<text text-anchor="middle" x="251" y="-943.3" font-family="Times New Roman,serif" font-size="14.00">logicalDelayStateGraph.T4.inPort.node</text>
</g>
<!-- logicalDelayStateGraph.T4.outPort.node -->
<g id="node2" class="node"><title>logicalDelayStateGraph.T4.outPort.node</title>
<polygon fill="#cae1ff" stroke="black" stroke-width="2" points="373,-878 129,-878 129,-842 373,-842 373,-878"/>
<text text-anchor="middle" x="251" y="-856.3" font-family="Times New Roman,serif" font-size="14.00">logicalDelayStateGraph.T4.outPort.node</text>
</g>
<!-- logicalDelayStateGraph.T4.inPort.node&#45;&#45;logicalDelayStateGraph.T4.outPort.node -->
<g id="edge1" class="edge"><title>logicalDelayStateGraph.T4.inPort.node&#45;&#45;logicalDelayStateGraph.T4.outPort.node</title>
<path fill="none" stroke="blue" stroke-width="2" d="M251,-928.799C251,-914.052 251,-892.915 251,-878.175"/>
<text text-anchor="middle" x="270.5" y="-899.8" font-family="Times New Roman,serif" font-size="14.00" fill="blue">branch</text>
</g>
<!-- logicalDelayStateGraph.Y1D0.inPort[1].node -->
<g id="node19" class="node"><title>logicalDelayStateGraph.Y1D0.inPort[1].node</title>
<polygon fill="#cae1ff" stroke="black" stroke-width="2" points="385.5,-791 116.5,-791 116.5,-755 385.5,-755 385.5,-791"/>
<text text-anchor="middle" x="251" y="-769.3" font-family="Times New Roman,serif" font-size="14.00">logicalDelayStateGraph.Y1D0.inPort[1].node</text>
</g>
<!-- logicalDelayStateGraph.T4.outPort.node&#45;&#45;logicalDelayStateGraph.Y1D0.inPort[1].node -->
<g id="edge17" class="edge"><title>logicalDelayStateGraph.T4.outPort.node&#45;&#45;logicalDelayStateGraph.Y1D0.inPort[1].node</title>
<path fill="none" stroke="green" d="M251,-841.799C251,-827.052 251,-805.915 251,-791.175"/>
<text text-anchor="middle" x="273.5" y="-812.8" font-family="Times New Roman,serif" font-size="14.00" fill="green">connect</text>
</g>
<!-- logicalDelayStateGraph.T3.inPort.node -->
<g id="node3" class="node"><title>logicalDelayStateGraph.T3.inPort.node</title>
<polygon fill="#cae1ff" stroke="black" stroke-width="2" points="674,-530 438,-530 438,-494 674,-494 674,-530"/>
<text text-anchor="middle" x="556" y="-508.3" font-family="Times New Roman,serif" font-size="14.00">logicalDelayStateGraph.T3.inPort.node</text>
</g>
<!-- logicalDelayStateGraph.T3.outPort.node -->
<g id="node4" class="node"><title>logicalDelayStateGraph.T3.outPort.node</title>
<polygon fill="#cae1ff" stroke="black" stroke-width="2" points="684,-443 440,-443 440,-407 684,-407 684,-443"/>
<text text-anchor="middle" x="562" y="-421.3" font-family="Times New Roman,serif" font-size="14.00">logicalDelayStateGraph.T3.outPort.node</text>
</g>
<!-- logicalDelayStateGraph.T3.inPort.node&#45;&#45;logicalDelayStateGraph.T3.outPort.node -->
<g id="edge2" class="edge"><title>logicalDelayStateGraph.T3.inPort.node&#45;&#45;logicalDelayStateGraph.T3.outPort.node</title>
<path fill="none" stroke="blue" stroke-width="2" d="M557.214,-493.799C558.255,-479.052 559.747,-457.915 560.788,-443.175"/>
<text text-anchor="middle" x="578.5" y="-464.8" font-family="Times New Roman,serif" font-size="14.00" fill="blue">branch</text>
</g>
<!-- logicalDelayStateGraph.Y0D0.inPort[1].node -->
<g id="node14" class="node"><title>logicalDelayStateGraph.Y0D0.inPort[1].node</title>
<polygon fill="#cae1ff" stroke="black" stroke-width="2" points="794.5,-356 525.5,-356 525.5,-320 794.5,-320 794.5,-356"/>
<text text-anchor="middle" x="660" y="-334.3" font-family="Times New Roman,serif" font-size="14.00">logicalDelayStateGraph.Y0D0.inPort[1].node</text>
</g>
<!-- logicalDelayStateGraph.T3.outPort.node&#45;&#45;logicalDelayStateGraph.Y0D0.inPort[1].node -->
<g id="edge16" class="edge"><title>logicalDelayStateGraph.T3.outPort.node&#45;&#45;logicalDelayStateGraph.Y0D0.inPort[1].node</title>
<path fill="none" stroke="green" d="M581.832,-406.799C598.834,-392.052 623.204,-370.915 640.198,-356.175"/>
<text text-anchor="middle" x="638.5" y="-377.8" font-family="Times New Roman,serif" font-size="14.00" fill="green">connect</text>
</g>
<!-- logicalDelayStateGraph.Y0D1.node -->
<g id="node5" class="node"><title>logicalDelayStateGraph.Y0D1.node</title>
<polygon fill="#cae1ff" stroke="black" stroke-width="2" points="653.5,-704 438.5,-704 438.5,-668 653.5,-668 653.5,-704"/>
<text text-anchor="middle" x="546" y="-682.3" font-family="Times New Roman,serif" font-size="14.00">logicalDelayStateGraph.Y0D1.node</text>
</g>
<!-- logicalDelayStateGraph.Y0D1.outPort[1].node -->
<g id="node6" class="node"><title>logicalDelayStateGraph.Y0D1.outPort[1].node</title>
<polygon fill="#cae1ff" stroke="black" stroke-width="2" points="684.5,-617 407.5,-617 407.5,-581 684.5,-581 684.5,-617"/>
<text text-anchor="middle" x="546" y="-595.3" font-family="Times New Roman,serif" font-size="14.00">logicalDelayStateGraph.Y0D1.outPort[1].node</text>
</g>
<!-- logicalDelayStateGraph.Y0D1.node&#45;&#45;logicalDelayStateGraph.Y0D1.outPort[1].node -->
<g id="edge3" class="edge"><title>logicalDelayStateGraph.Y0D1.node&#45;&#45;logicalDelayStateGraph.Y0D1.outPort[1].node</title>
<path fill="none" stroke="blue" stroke-width="2" d="M546,-667.799C546,-653.052 546,-631.915 546,-617.175"/>
<text text-anchor="middle" x="565.5" y="-638.8" font-family="Times New Roman,serif" font-size="14.00" fill="blue">branch</text>
</g>
<!-- logicalDelayStateGraph.Y0D1.outPort[1].node&#45;&#45;logicalDelayStateGraph.T3.inPort.node -->
<g id="edge18" class="edge"><title>logicalDelayStateGraph.Y0D1.outPort[1].node&#45;&#45;logicalDelayStateGraph.T3.inPort.node</title>
<path fill="none" stroke="green" d="M548.024,-580.799C549.759,-566.052 552.245,-544.915 553.979,-530.175"/>
<text text-anchor="middle" x="573.5" y="-551.8" font-family="Times New Roman,serif" font-size="14.00" fill="green">connect</text>
</g>
<!-- logicalDelayStateGraph.Y0D1.inPort[1].node -->
<g id="node7" class="node"><title>logicalDelayStateGraph.Y0D1.inPort[1].node</title>
<polygon fill="#cae1ff" stroke="black" stroke-width="2" points="680.5,-791 411.5,-791 411.5,-755 680.5,-755 680.5,-791"/>
<text text-anchor="middle" x="546" y="-769.3" font-family="Times New Roman,serif" font-size="14.00">logicalDelayStateGraph.Y0D1.inPort[1].node</text>
</g>
<!-- logicalDelayStateGraph.Y0D1.inPort[1].node&#45;&#45;logicalDelayStateGraph.Y0D1.node -->
<g id="edge4" class="edge"><title>logicalDelayStateGraph.Y0D1.inPort[1].node&#45;&#45;logicalDelayStateGraph.Y0D1.node</title>
<path fill="none" stroke="blue" stroke-width="2" d="M546,-754.799C546,-740.052 546,-718.915 546,-704.175"/>
<text text-anchor="middle" x="565.5" y="-725.8" font-family="Times New Roman,serif" font-size="14.00" fill="blue">branch</text>
</g>
<!-- logicalDelayStateGraph.T2.inPort.node -->
<g id="node8" class="node"><title>logicalDelayStateGraph.T2.inPort.node</title>
<polygon fill="#cae1ff" stroke="black" stroke-width="2" points="664,-965 428,-965 428,-929 664,-929 664,-965"/>
<text text-anchor="middle" x="546" y="-943.3" font-family="Times New Roman,serif" font-size="14.00">logicalDelayStateGraph.T2.inPort.node</text>
</g>
<!-- logicalDelayStateGraph.T2.outPort.node -->
<g id="node9" class="node"><title>logicalDelayStateGraph.T2.outPort.node</title>
<polygon fill="#cae1ff" stroke="black" stroke-width="2" points="668,-878 424,-878 424,-842 668,-842 668,-878"/>
<text text-anchor="middle" x="546" y="-856.3" font-family="Times New Roman,serif" font-size="14.00">logicalDelayStateGraph.T2.outPort.node</text>
</g>
<!-- logicalDelayStateGraph.T2.inPort.node&#45;&#45;logicalDelayStateGraph.T2.outPort.node -->
<g id="edge5" class="edge"><title>logicalDelayStateGraph.T2.inPort.node&#45;&#45;logicalDelayStateGraph.T2.outPort.node</title>
<path fill="none" stroke="blue" stroke-width="2" d="M546,-928.799C546,-914.052 546,-892.915 546,-878.175"/>
<text text-anchor="middle" x="565.5" y="-899.8" font-family="Times New Roman,serif" font-size="14.00" fill="blue">branch</text>
</g>
<!-- logicalDelayStateGraph.T2.outPort.node&#45;&#45;logicalDelayStateGraph.Y0D1.inPort[1].node -->
<g id="edge19" class="edge"><title>logicalDelayStateGraph.T2.outPort.node&#45;&#45;logicalDelayStateGraph.Y0D1.inPort[1].node</title>
<path fill="none" stroke="red" stroke-width="2" stroke-dasharray="5,2" d="M546,-841.799C546,-827.052 546,-805.915 546,-791.175"/>
<text text-anchor="middle" x="599" y="-812.8" font-family="Times New Roman,serif" font-size="14.00" fill="red">[[broken connect]]</text>
<polyline fill="none" stroke="red" points="652,-809 546,-809 546,-816.905 "/>
</g>
<!-- logicalDelayStateGraph.Y0D0.node -->
<g id="node10" class="node"><title>logicalDelayStateGraph.Y0D0.node</title>
<polygon fill="#cae1ff" stroke="black" stroke-width="2" points="505.5,-1139 290.5,-1139 290.5,-1103 505.5,-1103 505.5,-1139"/>
<text text-anchor="middle" x="398" y="-1117.3" font-family="Times New Roman,serif" font-size="14.00">logicalDelayStateGraph.Y0D0.node</text>
</g>
<!-- logicalDelayStateGraph.Y0D0.outPort[2].node -->
<g id="node11" class="node"><title>logicalDelayStateGraph.Y0D0.outPort[2].node</title>
<polygon fill="#cae1ff" stroke="black" stroke-width="2" points="684.5,-1052 407.5,-1052 407.5,-1016 684.5,-1016 684.5,-1052"/>
<text text-anchor="middle" x="546" y="-1030.3" font-family="Times New Roman,serif" font-size="14.00">logicalDelayStateGraph.Y0D0.outPort[2].node</text>
</g>
<!-- logicalDelayStateGraph.Y0D0.node&#45;&#45;logicalDelayStateGraph.Y0D0.outPort[2].node -->
<g id="edge6" class="edge"><title>logicalDelayStateGraph.Y0D0.node&#45;&#45;logicalDelayStateGraph.Y0D0.outPort[2].node</title>
<path fill="none" stroke="blue" stroke-width="2" d="M427.95,-1102.8C453.712,-1088 490.672,-1066.78 516.347,-1052.03"/>
<text text-anchor="middle" x="499.5" y="-1073.8" font-family="Times New Roman,serif" font-size="14.00" fill="blue">branch</text>
</g>
<!-- logicalDelayStateGraph.Y0D0.outPort[1].node -->
<g id="node12" class="node"><title>logicalDelayStateGraph.Y0D0.outPort[1].node</title>
<polygon fill="#cae1ff" stroke="black" stroke-width="2" points="389.5,-1052 112.5,-1052 112.5,-1016 389.5,-1016 389.5,-1052"/>
<text text-anchor="middle" x="251" y="-1030.3" font-family="Times New Roman,serif" font-size="14.00">logicalDelayStateGraph.Y0D0.outPort[1].node</text>
</g>
<!-- logicalDelayStateGraph.Y0D0.node&#45;&#45;logicalDelayStateGraph.Y0D0.outPort[1].node -->
<g id="edge7" class="edge"><title>logicalDelayStateGraph.Y0D0.node&#45;&#45;logicalDelayStateGraph.Y0D0.outPort[1].node</title>
<path fill="none" stroke="blue" stroke-width="2" d="M368.252,-1102.8C342.749,-1088.05 306.194,-1066.92 280.703,-1052.18"/>
<text text-anchor="middle" x="353.5" y="-1073.8" font-family="Times New Roman,serif" font-size="14.00" fill="blue">branch</text>
</g>
<!-- logicalDelayStateGraph.Y0D0.outPort[2].node&#45;&#45;logicalDelayStateGraph.T2.inPort.node -->
<g id="edge13" class="edge"><title>logicalDelayStateGraph.Y0D0.outPort[2].node&#45;&#45;logicalDelayStateGraph.T2.inPort.node</title>
<path fill="none" stroke="green" d="M546,-1015.8C546,-1001.05 546,-979.915 546,-965.175"/>
<text text-anchor="middle" x="568.5" y="-986.8" font-family="Times New Roman,serif" font-size="14.00" fill="green">connect</text>
</g>
<!-- logicalDelayStateGraph.Y0D0.outPort[1].node&#45;&#45;logicalDelayStateGraph.T4.inPort.node -->
<g id="edge14" class="edge"><title>logicalDelayStateGraph.Y0D0.outPort[1].node&#45;&#45;logicalDelayStateGraph.T4.inPort.node</title>
<path fill="none" stroke="green" d="M251,-1015.8C251,-1001.05 251,-979.915 251,-965.175"/>
<text text-anchor="middle" x="273.5" y="-986.8" font-family="Times New Roman,serif" font-size="14.00" fill="green">connect</text>
</g>
<!-- logicalDelayStateGraph.Y0D0.inPort[2].node -->
<g id="node13" class="node"><title>logicalDelayStateGraph.Y0D0.inPort[2].node</title>
<polygon fill="#cae1ff" stroke="black" stroke-width="2" points="304.5,-1226 35.5,-1226 35.5,-1190 304.5,-1190 304.5,-1226"/>
<text text-anchor="middle" x="170" y="-1204.3" font-family="Times New Roman,serif" font-size="14.00">logicalDelayStateGraph.Y0D0.inPort[2].node</text>
</g>
<!-- logicalDelayStateGraph.Y0D0.inPort[2].node&#45;&#45;logicalDelayStateGraph.Y0D0.node -->
<g id="edge8" class="edge"><title>logicalDelayStateGraph.Y0D0.inPort[2].node&#45;&#45;logicalDelayStateGraph.Y0D0.node</title>
<path fill="none" stroke="blue" stroke-width="2" d="M215.865,-1189.9C255.527,-1175.12 312.568,-1153.85 352.208,-1139.07"/>
<text text-anchor="middle" x="317.5" y="-1160.8" font-family="Times New Roman,serif" font-size="14.00" fill="blue">branch</text>
</g>
<!-- logicalDelayStateGraph.T1.outPort.node -->
<g id="node16" class="node"><title>logicalDelayStateGraph.T1.outPort.node</title>
<polygon fill="#cae1ff" stroke="black" stroke-width="2" points="244,-443 1.42109e-014,-443 1.42109e-014,-407 244,-407 244,-443"/>
<text text-anchor="middle" x="122" y="-421.3" font-family="Times New Roman,serif" font-size="14.00">logicalDelayStateGraph.T1.outPort.node</text>
</g>
<!-- logicalDelayStateGraph.Y0D0.inPort[2].node&#45;&#45;logicalDelayStateGraph.T1.outPort.node -->
<g id="edge15" class="edge"><title>logicalDelayStateGraph.Y0D0.inPort[2].node&#45;&#45;logicalDelayStateGraph.T1.outPort.node</title>
<path fill="none" stroke="green" d="M135.021,-1189.79C111.211,-1175.35 84,-1152.23 84,-1122 84,-1122 84,-1122 84,-511 84,-485.783 98.1108,-459.736 109.135,-443.234"/>
<text text-anchor="middle" x="106.5" y="-812.8" font-family="Times New Roman,serif" font-size="14.00" fill="green">connect</text>
</g>
<!-- logicalDelayStateGraph.Y0D0.inPort[1].node&#45;&#45;logicalDelayStateGraph.Y0D0.node -->
<g id="edge9" class="edge"><title>logicalDelayStateGraph.Y0D0.inPort[1].node&#45;&#45;logicalDelayStateGraph.Y0D0.node</title>
<path fill="none" stroke="blue" stroke-width="2" d="M678.835,-356.285C694.069,-372.228 713,-397.392 713,-424 713,-1035 713,-1035 713,-1035 713,-1079.04 596.777,-1100.94 505.524,-1111.35"/>
<text text-anchor="middle" x="732.5" y="-725.8" font-family="Times New Roman,serif" font-size="14.00" fill="blue">branch</text>
</g>
<!-- logicalDelayStateGraph.T1.inPort.node -->
<g id="node15" class="node"><title>logicalDelayStateGraph.T1.inPort.node</title>
<polygon fill="#cae1ff" stroke="black" stroke-width="2" points="354,-530 118,-530 118,-494 354,-494 354,-530"/>
<text text-anchor="middle" x="236" y="-508.3" font-family="Times New Roman,serif" font-size="14.00">logicalDelayStateGraph.T1.inPort.node</text>
</g>
<!-- logicalDelayStateGraph.T1.inPort.node&#45;&#45;logicalDelayStateGraph.T1.outPort.node -->
<g id="edge10" class="edge"><title>logicalDelayStateGraph.T1.inPort.node&#45;&#45;logicalDelayStateGraph.T1.outPort.node</title>
<path fill="none" stroke="blue" stroke-width="2" d="M212.93,-493.799C193.152,-479.052 164.804,-457.915 145.035,-443.175"/>
<text text-anchor="middle" x="205.5" y="-464.8" font-family="Times New Roman,serif" font-size="14.00" fill="blue">branch</text>
</g>
<!-- logicalDelayStateGraph.Y1D0.node -->
<g id="node17" class="node"><title>logicalDelayStateGraph.Y1D0.node</title>
<polygon fill="#cae1ff" stroke="black" stroke-width="2" points="358.5,-704 143.5,-704 143.5,-668 358.5,-668 358.5,-704"/>
<text text-anchor="middle" x="251" y="-682.3" font-family="Times New Roman,serif" font-size="14.00">logicalDelayStateGraph.Y1D0.node</text>
</g>
<!-- logicalDelayStateGraph.Y1D0.outPort[1].node -->
<g id="node18" class="node"><title>logicalDelayStateGraph.Y1D0.outPort[1].node</title>
<polygon fill="#cae1ff" stroke="black" stroke-width="2" points="389.5,-617 112.5,-617 112.5,-581 389.5,-581 389.5,-617"/>
<text text-anchor="middle" x="251" y="-595.3" font-family="Times New Roman,serif" font-size="14.00">logicalDelayStateGraph.Y1D0.outPort[1].node</text>
</g>
<!-- logicalDelayStateGraph.Y1D0.node&#45;&#45;logicalDelayStateGraph.Y1D0.outPort[1].node -->
<g id="edge11" class="edge"><title>logicalDelayStateGraph.Y1D0.node&#45;&#45;logicalDelayStateGraph.Y1D0.outPort[1].node</title>
<path fill="none" stroke="blue" stroke-width="2" d="M251,-667.799C251,-653.052 251,-631.915 251,-617.175"/>
<text text-anchor="middle" x="270.5" y="-638.8" font-family="Times New Roman,serif" font-size="14.00" fill="blue">branch</text>
</g>
<!-- logicalDelayStateGraph.Y1D0.outPort[1].node&#45;&#45;logicalDelayStateGraph.T1.inPort.node -->
<g id="edge20" class="edge"><title>logicalDelayStateGraph.Y1D0.outPort[1].node&#45;&#45;logicalDelayStateGraph.T1.inPort.node</title>
<path fill="none" stroke="red" stroke-width="2" stroke-dasharray="5,2" d="M247.965,-580.799C245.362,-566.052 241.632,-544.915 239.031,-530.175"/>
<text text-anchor="middle" x="298" y="-551.8" font-family="Times New Roman,serif" font-size="14.00" fill="red">[[broken connect]]</text>
<polyline fill="none" stroke="red" points="351,-548 245,-548 245.118,-564.67 "/>
</g>
<!-- logicalDelayStateGraph.Y1D0.inPort[1].node&#45;&#45;logicalDelayStateGraph.Y1D0.node -->
<g id="edge12" class="edge"><title>logicalDelayStateGraph.Y1D0.inPort[1].node&#45;&#45;logicalDelayStateGraph.Y1D0.node</title>
<path fill="none" stroke="blue" stroke-width="2" d="M251,-754.799C251,-740.052 251,-718.915 251,-704.175"/>
<text text-anchor="middle" x="270.5" y="-725.8" font-family="Times New Roman,serif" font-size="14.00" fill="blue">branch</text>
</g>
</g>
</svg>
